<svg width="204" height="34" viewBox="0 0 204 34" fill="none" xmlns="http://www.w3.org/2000/svg">
<path d="M3.22128 17.766L3.44528 19.39H3.45928L3.69728 17.738L5.71328 11.2H6.27328L8.30328 17.766L8.54128 19.39H8.55528L8.80728 17.738L10.4593 11.2H11.5933L8.86328 21.154H8.21928L6.23128 14.588L5.97928 13.104H5.90928L5.65728 14.602L3.66928 21.154H3.02528L0.225281 11.2H1.45728L3.22128 17.766ZM12.897 11.2H18.231V12.236H14.059V15.442H17.881V16.478H14.059V19.964H18.301V21H12.897V11.2ZM26.3109 13.44C26.3109 13.6733 26.2736 13.9113 26.1989 14.154C26.1242 14.3967 26.0122 14.6253 25.8629 14.84C25.7136 15.0453 25.5222 15.2273 25.2889 15.386C25.0556 15.5447 24.7802 15.666 24.4629 15.75V15.806C24.7429 15.8527 25.0089 15.932 25.2609 16.044C25.5222 16.156 25.7509 16.31 25.9469 16.506C26.1429 16.702 26.3016 16.94 26.4229 17.22C26.5442 17.5 26.6049 17.8313 26.6049 18.214C26.6049 18.718 26.4976 19.1567 26.2829 19.53C26.0776 19.894 25.8022 20.1927 25.4569 20.426C25.1209 20.6593 24.7336 20.832 24.2949 20.944C23.8562 21.056 23.4082 21.112 22.9509 21.112C22.7922 21.112 22.6056 21.112 22.3909 21.112C22.1762 21.112 21.9522 21.1027 21.7189 21.084C21.4856 21.0747 21.2522 21.056 21.0189 21.028C20.7856 21.0093 20.5802 20.9767 20.4029 20.93V11.284C20.7482 11.228 21.1496 11.1813 21.6069 11.144C22.0642 11.1067 22.5636 11.088 23.1049 11.088C23.4689 11.088 23.8376 11.1207 24.2109 11.186C24.5936 11.242 24.9389 11.3587 25.2469 11.536C25.5549 11.704 25.8069 11.942 26.0029 12.25C26.2082 12.558 26.3109 12.9547 26.3109 13.44ZM23.0629 20.104C23.3616 20.104 23.6509 20.0713 23.9309 20.006C24.2109 19.9313 24.4582 19.8193 24.6729 19.67C24.8876 19.5113 25.0556 19.32 25.1769 19.096C25.3076 18.872 25.3729 18.606 25.3729 18.298C25.3729 17.9153 25.2936 17.6073 25.1349 17.374C24.9856 17.1407 24.7849 16.9587 24.5329 16.828C24.2902 16.6973 24.0149 16.6087 23.7069 16.562C23.3989 16.5153 23.0909 16.492 22.7829 16.492H21.5649V20.006C21.6302 20.0247 21.7236 20.0387 21.8449 20.048C21.9662 20.0573 22.0969 20.0667 22.2369 20.076C22.3769 20.0853 22.5216 20.0947 22.6709 20.104C22.8202 20.104 22.9509 20.104 23.0629 20.104ZM22.2929 15.512C22.4516 15.512 22.6429 15.5073 22.8669 15.498C23.0909 15.4887 23.2776 15.4747 23.4269 15.456C23.6509 15.3813 23.8609 15.2927 24.0569 15.19C24.2529 15.078 24.4256 14.952 24.5749 14.812C24.7336 14.6627 24.8549 14.4947 24.9389 14.308C25.0322 14.112 25.0789 13.902 25.0789 13.678C25.0789 13.37 25.0182 13.118 24.8969 12.922C24.7849 12.7167 24.6309 12.5533 24.4349 12.432C24.2389 12.3107 24.0149 12.2267 23.7629 12.18C23.5109 12.124 23.2542 12.096 22.9929 12.096C22.6849 12.096 22.4002 12.1053 22.1389 12.124C21.8869 12.1333 21.6956 12.152 21.5649 12.18V15.512H22.2929ZM33.0027 18.508C33.0027 18.116 32.886 17.7987 32.6527 17.556C32.4193 17.304 32.1253 17.0847 31.7707 16.898C31.4253 16.702 31.0473 16.52 30.6367 16.352C30.226 16.184 29.8433 15.9833 29.4887 15.75C29.1433 15.5073 28.854 15.2133 28.6207 14.868C28.3873 14.5133 28.2707 14.0653 28.2707 13.524C28.2707 12.7587 28.5367 12.152 29.0687 11.704C29.6007 11.256 30.3567 11.032 31.3367 11.032C31.906 11.032 32.424 11.074 32.8907 11.158C33.3573 11.242 33.7213 11.3493 33.9827 11.48L33.6327 12.502C33.418 12.3993 33.1007 12.3013 32.6807 12.208C32.27 12.1147 31.8033 12.068 31.2807 12.068C30.6647 12.068 30.2027 12.208 29.8947 12.488C29.5867 12.7587 29.4327 13.0807 29.4327 13.454C29.4327 13.818 29.5493 14.1213 29.7827 14.364C30.016 14.6067 30.3053 14.826 30.6507 15.022C31.0053 15.2087 31.388 15.3953 31.7987 15.582C32.2093 15.7687 32.5873 15.988 32.9327 16.24C33.2873 16.4827 33.5813 16.7767 33.8147 17.122C34.048 17.4673 34.1647 17.8967 34.1647 18.41C34.1647 18.83 34.09 19.208 33.9407 19.544C33.7913 19.88 33.572 20.1693 33.2827 20.412C32.9933 20.6547 32.6433 20.8413 32.2327 20.972C31.822 21.1027 31.3553 21.168 30.8327 21.168C30.1327 21.168 29.554 21.112 29.0967 21C28.6393 20.8973 28.2847 20.7807 28.0327 20.65L28.4247 19.6C28.6393 19.7213 28.9567 19.8427 29.3767 19.964C29.7967 20.076 30.268 20.132 30.7907 20.132C31.0987 20.132 31.388 20.104 31.6587 20.048C31.9293 19.9827 32.1627 19.8847 32.3587 19.754C32.5547 19.614 32.7087 19.4413 32.8207 19.236C32.942 19.0307 33.0027 18.788 33.0027 18.508ZM36.2822 11.2H37.4442V21H36.2822V11.2ZM46.4184 12.236H43.3664V21H42.2044V12.236H39.1524V11.2H46.4184V12.236ZM47.856 11.2H53.19V12.236H49.018V15.442H52.84V16.478H49.018V19.964H53.26V21H47.856V11.2ZM65.0023 13.44C65.0023 13.6733 64.965 13.9113 64.8903 14.154C64.8156 14.3967 64.7036 14.6253 64.5543 14.84C64.405 15.0453 64.2136 15.2273 63.9803 15.386C63.747 15.5447 63.4716 15.666 63.1543 15.75V15.806C63.4343 15.8527 63.7003 15.932 63.9523 16.044C64.2136 16.156 64.4423 16.31 64.6383 16.506C64.8343 16.702 64.993 16.94 65.1143 17.22C65.2356 17.5 65.2963 17.8313 65.2963 18.214C65.2963 18.718 65.189 19.1567 64.9743 19.53C64.769 19.894 64.4936 20.1927 64.1483 20.426C63.8123 20.6593 63.425 20.832 62.9863 20.944C62.5476 21.056 62.0996 21.112 61.6423 21.112C61.4836 21.112 61.297 21.112 61.0823 21.112C60.8676 21.112 60.6436 21.1027 60.4103 21.084C60.177 21.0747 59.9436 21.056 59.7103 21.028C59.477 21.0093 59.2716 20.9767 59.0943 20.93V11.284C59.4396 11.228 59.841 11.1813 60.2983 11.144C60.7556 11.1067 61.255 11.088 61.7963 11.088C62.1603 11.088 62.529 11.1207 62.9023 11.186C63.285 11.242 63.6303 11.3587 63.9383 11.536C64.2463 11.704 64.4983 11.942 64.6943 12.25C64.8996 12.558 65.0023 12.9547 65.0023 13.44ZM61.7543 20.104C62.053 20.104 62.3423 20.0713 62.6223 20.006C62.9023 19.9313 63.1496 19.8193 63.3643 19.67C63.579 19.5113 63.747 19.32 63.8683 19.096C63.999 18.872 64.0643 18.606 64.0643 18.298C64.0643 17.9153 63.985 17.6073 63.8263 17.374C63.677 17.1407 63.4763 16.9587 63.2243 16.828C62.9816 16.6973 62.7063 16.6087 62.3983 16.562C62.0903 16.5153 61.7823 16.492 61.4743 16.492H60.2563V20.006C60.3216 20.0247 60.415 20.0387 60.5363 20.048C60.6576 20.0573 60.7883 20.0667 60.9283 20.076C61.0683 20.0853 61.213 20.0947 61.3623 20.104C61.5116 20.104 61.6423 20.104 61.7543 20.104ZM60.9843 15.512C61.143 15.512 61.3343 15.5073 61.5583 15.498C61.7823 15.4887 61.969 15.4747 62.1183 15.456C62.3423 15.3813 62.5523 15.2927 62.7483 15.19C62.9443 15.078 63.117 14.952 63.2663 14.812C63.425 14.6627 63.5463 14.4947 63.6303 14.308C63.7236 14.112 63.7703 13.902 63.7703 13.678C63.7703 13.37 63.7096 13.118 63.5883 12.922C63.4763 12.7167 63.3223 12.5533 63.1263 12.432C62.9303 12.3107 62.7063 12.2267 62.4543 12.18C62.2023 12.124 61.9456 12.096 61.6843 12.096C61.3763 12.096 61.0916 12.1053 60.8303 12.124C60.5783 12.1333 60.387 12.152 60.2563 12.18V15.512H60.9843ZM69.4261 17.108L66.1921 11.2H67.5501L69.8461 15.484L70.0841 16.338H70.0981L70.3501 15.456L72.5481 11.2H73.7941L70.5881 17.094V21H69.4261V17.108Z" fill="black"/>
<g clip-path="url(#clip0)">
<path d="M89 12.8806V15.4567H91.4579V12.8806H89Z" fill="black"/>
<path d="M100.647 4.52965C99.0863 4.52965 97.8253 5.23807 97.0345 6.26851H96.9491V0H94.9186V15.4566H96.9491V10.1541C96.9491 8.02886 98.2742 6.50466 100.219 6.50466C102.057 6.50466 103.126 7.87858 103.126 9.72478V15.4566H105.156V9.35984C105.156 6.41878 103.34 4.52965 100.647 4.52965Z" fill="black"/>
<path d="M115.617 4.83024H110.808V1.07343H108.778V4.83024H106.854V6.80525H108.778V12.7947C108.778 14.5121 109.74 15.4567 111.471 15.4567H115.617V13.4602H111.877C111.193 13.4602 110.808 13.0738 110.808 12.4083V6.80525H115.617V4.83024Z" fill="black"/>
<path d="M130.122 4.55109C128.497 4.55109 127.258 5.34538 126.574 6.61197H126.509C125.89 5.36686 124.736 4.55109 123.154 4.55109C121.743 4.55109 120.675 5.30244 120.034 6.35437H119.948V4.83017H118.003V15.4566H120.034V10.0038C120.034 8.00736 121.081 6.54758 122.662 6.50464C124.158 6.4617 125.035 7.53508 125.035 9.14513V15.4566H127.065V9.83209C127.065 7.44921 128.476 6.50464 129.694 6.50464C131.169 6.50464 132.045 7.53508 132.045 9.14513V15.4566H134.075V8.93047C134.075 6.35437 132.622 4.55109 130.122 4.55109Z" fill="black"/>
<path d="M136.827 12.7088C136.827 14.4476 137.81 15.4566 139.627 15.4566H141.636V13.4816H139.926C139.242 13.4816 138.857 13.0952 138.857 12.4297V0H136.827V12.7088Z" fill="black"/>
<path d="M117.905 19.7063H117.819C117.027 18.6393 115.742 17.8923 114.03 17.871C110.882 17.8283 108.634 20.1545 108.634 23.4411C108.634 26.749 110.925 29.0753 114.008 29.0326C115.764 29.0112 117.027 28.2216 117.819 27.0904H117.905V28.7337H119.918V18.1698H117.905V19.7063ZM114.308 27.0692C112.081 27.0692 110.668 25.4471 110.668 23.4411C110.668 21.435 112.081 19.8131 114.308 19.8131C116.47 19.8131 117.884 21.435 117.884 23.4411C117.884 25.4259 116.47 27.0692 114.308 27.0692Z" fill="black"/>
<path d="M133.21 22.0111C132.717 19.6209 130.597 17.8709 127.814 17.8709C124.452 17.8709 122.204 20.3252 122.204 23.441C122.204 26.5568 124.452 29.0325 127.814 29.0325C130.597 29.0325 132.717 27.2398 133.21 24.8282H131.09C130.662 26.1727 129.398 27.0903 127.835 27.0903C125.651 27.0903 124.238 25.447 124.238 23.441C124.238 21.4349 125.651 19.813 127.835 19.813C129.462 19.813 130.662 20.7733 131.09 22.0111H133.21Z" fill="black"/>
<path d="M144.084 19.7063H143.998C143.206 18.6393 141.921 17.8923 140.208 17.871C137.061 17.8283 134.812 20.1545 134.812 23.4411C134.812 26.749 137.104 29.0753 140.187 29.0326C141.942 29.0112 143.206 28.2216 143.998 27.0904H144.084V28.7337H146.096V18.1698H144.084V19.7063ZM140.487 27.0692C138.26 27.0692 136.847 25.4471 136.847 23.4411C136.847 21.435 138.26 19.8131 140.487 19.8131C142.649 19.8131 144.062 21.435 144.062 23.4411C144.062 25.4259 142.649 27.0692 140.487 27.0692Z" fill="black"/>
<path d="M157.654 19.8129H157.568C156.776 18.6818 155.448 17.8922 153.757 17.8709C150.674 17.8282 148.383 20.1544 148.383 23.4623C148.383 26.7489 150.631 29.0752 153.778 29.0325C155.448 29.0111 156.776 28.2642 157.547 27.1971H157.654V28.7336H159.666V13.3679H157.654V19.8129ZM154.057 27.0903C151.83 27.0903 150.417 25.4685 150.417 23.4623C150.417 21.4562 151.83 19.8343 154.057 19.8343C156.219 19.8343 157.632 21.4776 157.632 23.4623C157.632 25.4685 156.219 27.0903 154.057 27.0903Z" fill="black"/>
<path d="M167.33 17.8709C164.075 17.8709 161.848 20.3678 161.848 23.4623C161.848 26.4714 163.947 29.0325 167.372 29.0325C169.856 29.0325 171.847 27.688 172.554 25.447H170.434C169.963 26.4502 168.829 27.0903 167.458 27.0903C165.531 27.0903 164.161 25.8099 164.011 24.1666H172.768C173.046 20.6453 170.841 17.8709 167.33 17.8709ZM167.287 19.813C168.978 19.813 170.242 20.8587 170.563 22.3739H164.054C164.353 20.88 165.617 19.813 167.287 19.813Z" fill="black"/>
<path d="M187.198 17.8922C185.571 17.8922 184.329 18.6818 183.644 19.9409H183.58C182.959 18.7031 181.803 17.8922 180.218 17.8922C178.805 17.8922 177.735 18.6391 177.092 19.6848H177.007V18.1696H175.058V28.7335H177.092V23.3128C177.092 21.3281 178.142 19.8769 179.726 19.8342C181.225 19.7915 182.103 20.8586 182.103 22.4592V28.7335H184.137V23.1421C184.137 20.7732 185.55 19.8342 186.77 19.8342C188.248 19.8342 189.125 20.8586 189.125 22.4592V28.7335H191.16V22.2458C191.16 19.6848 189.704 17.8922 187.198 17.8922Z" fill="black"/>
<path d="M198.441 27.0477L194.801 18.1697H192.553L197.392 29.7368L197.371 29.7794C197.028 30.6544 196.643 30.9745 195.701 30.9745H193.196V33.0019H195.701C197.542 33.0019 198.527 32.1696 199.212 30.3769L203.88 18.1697H201.803L198.441 27.0477Z" fill="black"/>
</g>
<defs>
<clipPath id="clip0">
<rect width="115" height="33.0294" fill="white" transform="translate(89)"/>
</clipPath>
</defs>
</svg>
